# xmcd CD database file
# Copyright (C) 1993-1998 Ti Kan
# 
# Track frame offsets:
#     150
#     12255
#     25460
#     38965
#     51453
#     64510
#     78398
#     91375
#     104633
#     114565
#     124745
#     137898
#     151188
#     164208
#     176828
#     191508
#     203263
#     215005
#     227990
#     241818
# 
# Disc length: 3354 seconds
# 
# Revision: 1
# Processed by: cddbd v1.4b41PL1 Copyright (c) Steve Scherf et al.
# Submitted via: DiscPlay 4.0.4
# 
DISCID=1e0d1814
DTITLE=Howlin' Wolf - Smokestack Lightnin'  Vol. 1
DYEAR=1900
DGENRE=
TTITLE0=How Many More Years
TTITLE1=Moanin' At  Midnight
TTITLE2=I Love My Baby
TTITLE3=Neighbors
TTITLE4=I'm The Wolf
TTITLE5=Rockin' Daddy
TTITLE6=Just My Kind
TTITLE7=I've Got A Woman
TTITLE8=Work For Your Money
TTITLE9=All  Night Boogie
TTITLE10=Baby How Long
TTITLE11=No Place To Go
TTITLE12=Evil
TTITLE13=Fourty Four
TTITLE14=I'll Be Around
TTITLE15=Who Will Be Next?
TTITLE16=I Have A Little Girl
TTITLE17=I Asked For Water
TTITLE18=Smokestack Lightnin'
TTITLE19=Natchez Burning
EXTD=
EXTT0=
EXTT1=
EXTT2=
EXTT3=
EXTT4=
EXTT5=
EXTT6=
EXTT7=
EXTT8=
EXTT9=
EXTT10=
EXTT11=
EXTT12=
EXTT13=
EXTT14=
EXTT15=
EXTT16=
EXTT17=
EXTT18=
EXTT19=
PLAYORDER=
